{
  "asset": {
    "copyright": "By Studio Ochi",
    "generator": "Khronos glTF Blender I/O v1.5.17",
    "version": "2.0"
  },
  "scene": 0,
  "scenes": [
    {
      "name": "Scene",
      "nodes": [
        0
      ]
    }
  ],
  "nodes": [
    {
      "mesh": 0,
      "name": "AutumnManB.002"
    }
  ],
  "materials": [
    {
      "doubleSided": true,
      "name": "Autumn03",
      "pbrMetallicRoughness": {
        "baseColorTexture": {
          "index": 0
        },
        "metallicFactor": 0,
        "roughnessFactor": 0.5
      }
    }
  ],
  "meshes": [
    {
      "name": "AutumnManB.019",
      "primitives": [
        {
          "attributes": {
            "POSITION": 0,
            "NORMAL": 1,
            "TEXCOORD_0": 2
          },
          "indices": 3,
          "material": 0
        }
      ]
    }
  ],
  "textures": [
    {
      "sampler": 0,
      "source": 0
    }
  ],
  "images": [
    {
      "name": "StudioOchi_AutumnPeople.003",
      "uri": "AutumnManB.002_img0.png"
    }
  ],
  "accessors": [
    {
      "bufferView": 0,
      "componentType": 5126,
      "count": 1158,
      "max": [
        0.21676774322986603,
        1.6247975826263428,
        0.5934549570083618
      ],
      "min": [
        -0.21716079115867615,
        -0.02646626904606819,
        -0.5493495464324951
      ],
      "type": "VEC3"
    },
    {
      "bufferView": 1,
      "componentType": 5126,
      "count": 1158,
      "type": "VEC3"
    },
    {
      "bufferView": 2,
      "componentType": 5126,
      "count": 1158,
      "type": "VEC2"
    },
    {
      "bufferView": 3,
      "componentType": 5123,
      "count": 1710,
      "type": "SCALAR"
    }
  ],
  "bufferViews": [
    {
      "buffer": 0,
      "byteLength": 13896,
      "byteOffset": 0
    },
    {
      "buffer": 0,
      "byteLength": 13896,
      "byteOffset": 13896
    },
    {
      "buffer": 0,
      "byteLength": 9264,
      "byteOffset": 27792
    },
    {
      "buffer": 0,
      "byteLength": 3420,
      "byteOffset": 37056
    }
  ],
  "samplers": [
    {
      "magFilter": 9729,
      "minFilter": 9987
    }
  ],
  "buffers": [
    {
      "uri": "AutumnManB.002_data.bin",
      "byteLength": 40476
    }
  ]
}