{
  "asset": {
    "copyright": "By Studio Ochi",
    "generator": "Khronos glTF Blender I/O v1.5.17",
    "version": "2.0"
  },
  "scene": 0,
  "scenes": [
    {
      "name": "Scene",
      "nodes": [
        0
      ]
    }
  ],
  "nodes": [
    {
      "mesh": 0,
      "name": "AutumnWomanC.002"
    }
  ],
  "materials": [
    {
      "doubleSided": true,
      "name": "Autumn03",
      "pbrMetallicRoughness": {
        "baseColorTexture": {
          "index": 0
        },
        "metallicFactor": 0,
        "roughnessFactor": 0.5
      }
    }
  ],
  "meshes": [
    {
      "name": "AutumnWomanC.019",
      "primitives": [
        {
          "attributes": {
            "POSITION": 0,
            "NORMAL": 1,
            "TEXCOORD_0": 2
          },
          "indices": 3,
          "material": 0
        }
      ]
    }
  ],
  "textures": [
    {
      "sampler": 0,
      "source": 0
    }
  ],
  "images": [
    {
      "name": "StudioOchi_AutumnPeople.003",
      "uri": "AutumnWomanC.002_img0.png"
    }
  ],
  "accessors": [
    {
      "bufferView": 0,
      "componentType": 5126,
      "count": 1342,
      "max": [
        0.22845028340816498,
        1.5734261274337769,
        0.5660867094993591
      ],
      "min": [
        -0.2281121164560318,
        -0.025239091366529465,
        -0.5413581728935242
      ],
      "type": "VEC3"
    },
    {
      "bufferView": 1,
      "componentType": 5126,
      "count": 1342,
      "type": "VEC3"
    },
    {
      "bufferView": 2,
      "componentType": 5126,
      "count": 1342,
      "type": "VEC2"
    },
    {
      "bufferView": 3,
      "componentType": 5123,
      "count": 1974,
      "type": "SCALAR"
    }
  ],
  "bufferViews": [
    {
      "buffer": 0,
      "byteLength": 16104,
      "byteOffset": 0
    },
    {
      "buffer": 0,
      "byteLength": 16104,
      "byteOffset": 16104
    },
    {
      "buffer": 0,
      "byteLength": 10736,
      "byteOffset": 32208
    },
    {
      "buffer": 0,
      "byteLength": 3948,
      "byteOffset": 42944
    }
  ],
  "samplers": [
    {
      "magFilter": 9729,
      "minFilter": 9987
    }
  ],
  "buffers": [
    {
      "uri": "AutumnWomanC.002_data.bin",
      "byteLength": 46892
    }
  ]
}