{
  "asset": {
    "copyright": "By Studio Ochi",
    "generator": "Khronos glTF Blender I/O v1.5.17",
    "version": "2.0"
  },
  "scene": 0,
  "scenes": [
    {
      "name": "Scene",
      "nodes": [
        0
      ]
    }
  ],
  "nodes": [
    {
      "mesh": 0,
      "name": "AutumnGirl.010"
    }
  ],
  "materials": [
    {
      "doubleSided": true,
      "name": "Autumn06",
      "pbrMetallicRoughness": {
        "baseColorTexture": {
          "index": 0
        },
        "metallicFactor": 0,
        "roughnessFactor": 0.5
      }
    }
  ],
  "meshes": [
    {
      "name": "AutumnGirl.001",
      "primitives": [
        {
          "attributes": {
            "POSITION": 0,
            "NORMAL": 1,
            "TEXCOORD_0": 2,
            "COLOR_0": 3
          },
          "indices": 4,
          "material": 0
        }
      ]
    }
  ],
  "textures": [
    {
      "sampler": 0,
      "source": 0
    }
  ],
  "images": [
    {
      "name": "StudioOchi_AutumnPeople.006",
      "uri": "AutumnGirl.010_img0.png"
    }
  ],
  "accessors": [
    {
      "bufferView": 0,
      "componentType": 5126,
      "count": 1566,
      "max": [
        0.2671661972999573,
        1.724719762802124,
        0.16824492812156677
      ],
      "min": [
        -0.280069500207901,
        -0.014971908181905746,
        -0.1940866857767105
      ],
      "type": "VEC3"
    },
    {
      "bufferView": 1,
      "componentType": 5126,
      "count": 1566,
      "type": "VEC3"
    },
    {
      "bufferView": 2,
      "componentType": 5126,
      "count": 1566,
      "type": "VEC2"
    },
    {
      "bufferView": 3,
      "componentType": 5123,
      "count": 1566,
      "normalized": true,
      "type": "VEC4"
    },
    {
      "bufferView": 4,
      "componentType": 5123,
      "count": 2286,
      "type": "SCALAR"
    }
  ],
  "bufferViews": [
    {
      "buffer": 0,
      "byteLength": 18792,
      "byteOffset": 0
    },
    {
      "buffer": 0,
      "byteLength": 18792,
      "byteOffset": 18792
    },
    {
      "buffer": 0,
      "byteLength": 12528,
      "byteOffset": 37584
    },
    {
      "buffer": 0,
      "byteLength": 12528,
      "byteOffset": 50112
    },
    {
      "buffer": 0,
      "byteLength": 4572,
      "byteOffset": 62640
    }
  ],
  "samplers": [
    {
      "magFilter": 9729,
      "minFilter": 9987
    }
  ],
  "buffers": [
    {
      "uri": "AutumnGirl.010_data.bin",
      "byteLength": 67212
    }
  ]
}