{
  "asset": {
    "copyright": "By Studio Ochi",
    "generator": "Khronos glTF Blender I/O v1.5.17",
    "version": "2.0"
  },
  "scene": 0,
  "scenes": [
    {
      "name": "Scene",
      "nodes": [
        0
      ]
    }
  ],
  "nodes": [
    {
      "mesh": 0,
      "name": "AutumnManA.007"
    }
  ],
  "materials": [
    {
      "doubleSided": true,
      "name": "Autumn05",
      "pbrMetallicRoughness": {
        "baseColorTexture": {
          "index": 0
        },
        "metallicFactor": 0,
        "roughnessFactor": 0.5
      }
    }
  ],
  "meshes": [
    {
      "name": "AutumnManA.019",
      "primitives": [
        {
          "attributes": {
            "POSITION": 0,
            "NORMAL": 1,
            "TEXCOORD_0": 2
          },
          "indices": 3,
          "material": 0
        }
      ]
    }
  ],
  "textures": [
    {
      "sampler": 0,
      "source": 0
    }
  ],
  "images": [
    {
      "name": "StudioOchi_AutumnPeople.005",
      "uri": "AutumnManA.007_img0.png"
    }
  ],
  "accessors": [
    {
      "bufferView": 0,
      "componentType": 5126,
      "count": 1292,
      "max": [
        0.22063736617565155,
        1.7310305833816528,
        0.438761830329895
      ],
      "min": [
        -0.22892244160175323,
        -0.008451077155768871,
        -0.4533129334449768
      ],
      "type": "VEC3"
    },
    {
      "bufferView": 1,
      "componentType": 5126,
      "count": 1292,
      "type": "VEC3"
    },
    {
      "bufferView": 2,
      "componentType": 5126,
      "count": 1292,
      "type": "VEC2"
    },
    {
      "bufferView": 3,
      "componentType": 5123,
      "count": 1896,
      "type": "SCALAR"
    }
  ],
  "bufferViews": [
    {
      "buffer": 0,
      "byteLength": 15504,
      "byteOffset": 0
    },
    {
      "buffer": 0,
      "byteLength": 15504,
      "byteOffset": 15504
    },
    {
      "buffer": 0,
      "byteLength": 10336,
      "byteOffset": 31008
    },
    {
      "buffer": 0,
      "byteLength": 3792,
      "byteOffset": 41344
    }
  ],
  "samplers": [
    {
      "magFilter": 9729,
      "minFilter": 9987
    }
  ],
  "buffers": [
    {
      "uri": "AutumnManA.007_data.bin",
      "byteLength": 45136
    }
  ]
}