{
  "asset": {
    "copyright": "By Studio Ochi",
    "generator": "Khronos glTF Blender I/O v1.5.17",
    "version": "2.0"
  },
  "scene": 0,
  "scenes": [
    {
      "name": "Scene",
      "nodes": [
        0
      ]
    }
  ],
  "nodes": [
    {
      "mesh": 0,
      "name": "AutumnBaby.007"
    }
  ],
  "materials": [
    {
      "doubleSided": true,
      "name": "Autumn04",
      "pbrMetallicRoughness": {
        "baseColorTexture": {
          "index": 0
        },
        "metallicFactor": 0,
        "roughnessFactor": 0.5
      }
    }
  ],
  "meshes": [
    {
      "name": "AutumnBaby.004",
      "primitives": [
        {
          "attributes": {
            "POSITION": 0,
            "NORMAL": 1,
            "TEXCOORD_0": 2
          },
          "indices": 3,
          "material": 0
        }
      ]
    }
  ],
  "textures": [
    {
      "sampler": 0,
      "source": 0
    }
  ],
  "images": [
    {
      "name": "StudioOchi_AutumnPeople.004",
      "uri": "AutumnBaby.007_img0.png"
    }
  ],
  "accessors": [
    {
      "bufferView": 0,
      "componentType": 5126,
      "count": 1146,
      "max": [
        0.1990334689617157,
        0.6049010753631592,
        0.15916626155376434
      ],
      "min": [
        -0.12721315026283264,
        -0.006127553526312113,
        -0.11817830055952072
      ],
      "type": "VEC3"
    },
    {
      "bufferView": 1,
      "componentType": 5126,
      "count": 1146,
      "type": "VEC3"
    },
    {
      "bufferView": 2,
      "componentType": 5126,
      "count": 1146,
      "type": "VEC2"
    },
    {
      "bufferView": 3,
      "componentType": 5123,
      "count": 1686,
      "type": "SCALAR"
    }
  ],
  "bufferViews": [
    {
      "buffer": 0,
      "byteLength": 13752,
      "byteOffset": 0
    },
    {
      "buffer": 0,
      "byteLength": 13752,
      "byteOffset": 13752
    },
    {
      "buffer": 0,
      "byteLength": 9168,
      "byteOffset": 27504
    },
    {
      "buffer": 0,
      "byteLength": 3372,
      "byteOffset": 36672
    }
  ],
  "samplers": [
    {
      "magFilter": 9729,
      "minFilter": 9987
    }
  ],
  "buffers": [
    {
      "uri": "AutumnBaby.007_data.bin",
      "byteLength": 40044
    }
  ]
}