{
  "asset": {
    "copyright": "By Studio Ochi",
    "generator": "Khronos glTF Blender I/O v1.5.17",
    "version": "2.0"
  },
  "scene": 0,
  "scenes": [
    {
      "name": "Scene",
      "nodes": [
        0
      ]
    }
  ],
  "nodes": [
    {
      "mesh": 0,
      "name": "AutumnWomanB.010"
    }
  ],
  "materials": [
    {
      "doubleSided": true,
      "name": "Autumn05",
      "pbrMetallicRoughness": {
        "baseColorTexture": {
          "index": 0
        },
        "metallicFactor": 0,
        "roughnessFactor": 0.5
      }
    }
  ],
  "meshes": [
    {
      "name": "AutumnWomanB.016",
      "primitives": [
        {
          "attributes": {
            "POSITION": 0,
            "NORMAL": 1,
            "TEXCOORD_0": 2
          },
          "indices": 3,
          "material": 0
        }
      ]
    }
  ],
  "textures": [
    {
      "sampler": 0,
      "source": 0
    }
  ],
  "images": [
    {
      "name": "StudioOchi_AutumnPeople.005",
      "uri": "AutumnWomanB.010_img0.png"
    }
  ],
  "accessors": [
    {
      "bufferView": 0,
      "componentType": 5126,
      "count": 1474,
      "max": [
        0.28356489539146423,
        1.7471673488616943,
        0.12045636028051376
      ],
      "min": [
        -0.2231718748807907,
        -0.016026673838496208,
        -0.19367340207099915
      ],
      "type": "VEC3"
    },
    {
      "bufferView": 1,
      "componentType": 5126,
      "count": 1474,
      "type": "VEC3"
    },
    {
      "bufferView": 2,
      "componentType": 5126,
      "count": 1474,
      "type": "VEC2"
    },
    {
      "bufferView": 3,
      "componentType": 5123,
      "count": 2178,
      "type": "SCALAR"
    }
  ],
  "bufferViews": [
    {
      "buffer": 0,
      "byteLength": 17688,
      "byteOffset": 0
    },
    {
      "buffer": 0,
      "byteLength": 17688,
      "byteOffset": 17688
    },
    {
      "buffer": 0,
      "byteLength": 11792,
      "byteOffset": 35376
    },
    {
      "buffer": 0,
      "byteLength": 4356,
      "byteOffset": 47168
    }
  ],
  "samplers": [
    {
      "magFilter": 9729,
      "minFilter": 9987
    }
  ],
  "buffers": [
    {
      "uri": "AutumnWomanB.010_data.bin",
      "byteLength": 51524
    }
  ]
}