{
  "asset": {
    "copyright": "By Studio Ochi",
    "generator": "Khronos glTF Blender I/O v1.5.17",
    "version": "2.0"
  },
  "scene": 0,
  "scenes": [
    {
      "name": "Scene",
      "nodes": [
        0
      ]
    }
  ],
  "nodes": [
    {
      "mesh": 0,
      "name": "SpringManA.008"
    }
  ],
  "materials": [
    {
      "doubleSided": true,
      "name": "Spring01",
      "pbrMetallicRoughness": {
        "baseColorTexture": {
          "index": 0
        },
        "metallicFactor": 0,
        "roughnessFactor": 0.5
      }
    }
  ],
  "meshes": [
    {
      "name": "SpringManA.008",
      "primitives": [
        {
          "attributes": {
            "POSITION": 0,
            "NORMAL": 1,
            "TEXCOORD_0": 2
          },
          "indices": 3,
          "material": 0
        }
      ]
    }
  ],
  "textures": [
    {
      "sampler": 0,
      "source": 0
    }
  ],
  "images": [
    {
      "name": "StudioOchi_SpringPeople.001",
      "uri": "SpringManA.008_img0.png"
    }
  ],
  "accessors": [
    {
      "bufferView": 0,
      "componentType": 5126,
      "count": 1310,
      "max": [
        0.21218694746494293,
        1.7290302515029907,
        0.43972107768058777
      ],
      "min": [
        -0.2206961214542389,
        -0.008141616359353065,
        -0.4544452726840973
      ],
      "type": "VEC3"
    },
    {
      "bufferView": 1,
      "componentType": 5126,
      "count": 1310,
      "type": "VEC3"
    },
    {
      "bufferView": 2,
      "componentType": 5126,
      "count": 1310,
      "type": "VEC2"
    },
    {
      "bufferView": 3,
      "componentType": 5123,
      "count": 1926,
      "type": "SCALAR"
    }
  ],
  "bufferViews": [
    {
      "buffer": 0,
      "byteLength": 15720,
      "byteOffset": 0
    },
    {
      "buffer": 0,
      "byteLength": 15720,
      "byteOffset": 15720
    },
    {
      "buffer": 0,
      "byteLength": 10480,
      "byteOffset": 31440
    },
    {
      "buffer": 0,
      "byteLength": 3852,
      "byteOffset": 41920
    }
  ],
  "samplers": [
    {
      "magFilter": 9729,
      "minFilter": 9987
    }
  ],
  "buffers": [
    {
      "uri": "SpringManA.008_data.bin",
      "byteLength": 45772
    }
  ]
}