{
  "asset": {
    "copyright": "By Studio Ochi",
    "generator": "Khronos glTF Blender I/O v1.5.17",
    "version": "2.0"
  },
  "scene": 0,
  "scenes": [
    {
      "name": "Scene",
      "nodes": [
        0
      ]
    }
  ],
  "nodes": [
    {
      "mesh": 0,
      "name": "SpringManB.006"
    }
  ],
  "materials": [
    {
      "doubleSided": true,
      "name": "Spring02",
      "pbrMetallicRoughness": {
        "baseColorTexture": {
          "index": 0
        },
        "metallicFactor": 0,
        "roughnessFactor": 0.5
      }
    }
  ],
  "meshes": [
    {
      "name": "SpringManB.006",
      "primitives": [
        {
          "attributes": {
            "POSITION": 0,
            "NORMAL": 1,
            "TEXCOORD_0": 2
          },
          "indices": 3,
          "material": 0
        }
      ]
    }
  ],
  "textures": [
    {
      "sampler": 0,
      "source": 0
    }
  ],
  "images": [
    {
      "name": "StudioOchi_SpringPeople.002",
      "uri": "SpringManB.005_img0.png"
    }
  ],
  "accessors": [
    {
      "bufferView": 0,
      "componentType": 5126,
      "count": 1390,
      "max": [
        0.2229292094707489,
        1.5503400564193726,
        0.5608206391334534
      ],
      "min": [
        -0.2376226931810379,
        -0.019086778163909912,
        -0.7357493042945862
      ],
      "type": "VEC3"
    },
    {
      "bufferView": 1,
      "componentType": 5126,
      "count": 1390,
      "type": "VEC3"
    },
    {
      "bufferView": 2,
      "componentType": 5126,
      "count": 1390,
      "type": "VEC2"
    },
    {
      "bufferView": 3,
      "componentType": 5123,
      "count": 2046,
      "type": "SCALAR"
    }
  ],
  "bufferViews": [
    {
      "buffer": 0,
      "byteLength": 16680,
      "byteOffset": 0
    },
    {
      "buffer": 0,
      "byteLength": 16680,
      "byteOffset": 16680
    },
    {
      "buffer": 0,
      "byteLength": 11120,
      "byteOffset": 33360
    },
    {
      "buffer": 0,
      "byteLength": 4092,
      "byteOffset": 44480
    }
  ],
  "samplers": [
    {
      "magFilter": 9729,
      "minFilter": 9987
    }
  ],
  "buffers": [
    {
      "uri": "SpringManB.005_data.bin",
      "byteLength": 48572
    }
  ]
}