{
  "asset": {
    "copyright": "By Studio Ochi",
    "generator": "Khronos glTF Blender I/O v1.5.17",
    "version": "2.0"
  },
  "extensionsUsed": [
    "KHR_materials_clearcoat"
  ],
  "scene": 0,
  "scenes": [
    {
      "name": "Scene",
      "nodes": [
        0
      ]
    }
  ],
  "nodes": [
    {
      "mesh": 0,
      "name": "SpringWomanA.001"
    }
  ],
  "materials": [
    {
      "doubleSided": true,
      "name": "Spring01",
      "pbrMetallicRoughness": {
        "baseColorTexture": {
          "index": 0
        },
        "metallicFactor": 0,
        "roughnessFactor": 0.5
      }
    },
    {
      "doubleSided": true,
      "extensions": {
        "KHR_materials_clearcoat": {
          "clearcoatFactor": 1,
          "clearcoatRoughnessFactor": 0.029999999329447746
        }
      },
      "name": "Blue",
      "pbrMetallicRoughness": {
        "baseColorFactor": [
          0.019706282764673233,
          0.03491701930761337,
          0.0984848290681839,
          1
        ],
        "metallicFactor": 0,
        "roughnessFactor": 0.5
      }
    },
    {
      "doubleSided": true,
      "name": "Black",
      "pbrMetallicRoughness": {
        "baseColorFactor": [
          0,
          0,
          0,
          1
        ],
        "metallicFactor": 0,
        "roughnessFactor": 0.5
      }
    },
    {
      "doubleSided": true,
      "name": "Steel",
      "pbrMetallicRoughness": {
        "baseColorFactor": [
          0.2597902715206146,
          0.2597902715206146,
          0.2597902715206146,
          1
        ],
        "metallicFactor": 0.5,
        "roughnessFactor": 0.25
      }
    },
    {
      "doubleSided": true,
      "name": "Yellow",
      "pbrMetallicRoughness": {
        "baseColorFactor": [
          0.8000000715255737,
          0.4196889400482178,
          0,
          1
        ],
        "metallicFactor": 0,
        "roughnessFactor": 0.5
      }
    },
    {
      "doubleSided": true,
      "name": "White",
      "pbrMetallicRoughness": {
        "metallicFactor": 0,
        "roughnessFactor": 0.5
      }
    }
  ],
  "meshes": [
    {
      "name": "SpringWomanA.012",
      "primitives": [
        {
          "attributes": {
            "POSITION": 0,
            "NORMAL": 1,
            "TEXCOORD_0": 2
          },
          "indices": 3,
          "material": 0
        },
        {
          "attributes": {
            "POSITION": 4,
            "NORMAL": 5,
            "TEXCOORD_0": 6
          },
          "indices": 7,
          "material": 1
        },
        {
          "attributes": {
            "POSITION": 8,
            "NORMAL": 9,
            "TEXCOORD_0": 10
          },
          "indices": 11,
          "material": 2
        },
        {
          "attributes": {
            "POSITION": 12,
            "NORMAL": 13,
            "TEXCOORD_0": 14
          },
          "indices": 15,
          "material": 3
        },
        {
          "attributes": {
            "POSITION": 16,
            "NORMAL": 17,
            "TEXCOORD_0": 18
          },
          "indices": 19,
          "material": 4
        },
        {
          "attributes": {
            "POSITION": 20,
            "NORMAL": 21,
            "TEXCOORD_0": 22
          },
          "indices": 23,
          "material": 5
        }
      ]
    }
  ],
  "textures": [
    {
      "sampler": 0,
      "source": 0
    }
  ],
  "images": [
    {
      "name": "StudioOchi_SpringPeople.001",
      "uri": "SpringWomanA.001_img0.png"
    }
  ],
  "accessors": [
    {
      "bufferView": 0,
      "componentType": 5126,
      "count": 1414,
      "max": [
        0.3583695590496063,
        1.6545311212539673,
        0.014576727524399757
      ],
      "min": [
        -0.3499058485031128,
        0.2104969620704651,
        -0.7505197525024414
      ],
      "type": "VEC3"
    },
    {
      "bufferView": 1,
      "componentType": 5126,
      "count": 1414,
      "type": "VEC3"
    },
    {
      "bufferView": 2,
      "componentType": 5126,
      "count": 1414,
      "type": "VEC2"
    },
    {
      "bufferView": 3,
      "componentType": 5123,
      "count": 2082,
      "type": "SCALAR"
    },
    {
      "bufferView": 4,
      "componentType": 5126,
      "count": 1787,
      "max": [
        0.23463141918182373,
        0.9793891310691833,
        0.2916859984397888
      ],
      "min": [
        -0.22285814583301544,
        0.32843104004859924,
        -1.0122501850128174
      ],
      "type": "VEC3"
    },
    {
      "bufferView": 5,
      "componentType": 5126,
      "count": 1787,
      "type": "VEC3"
    },
    {
      "bufferView": 6,
      "componentType": 5126,
      "count": 1787,
      "type": "VEC2"
    },
    {
      "bufferView": 7,
      "componentType": 5123,
      "count": 2688,
      "type": "SCALAR"
    },
    {
      "bufferView": 8,
      "componentType": 5126,
      "count": 2155,
      "max": [
        0.3724478781223297,
        0.995607852935791,
        0.6269547343254089
      ],
      "min": [
        -0.3576752245426178,
        -0.00012332481855992228,
        -1.3445873260498047
      ],
      "type": "VEC3"
    },
    {
      "bufferView": 9,
      "componentType": 5126,
      "count": 2155,
      "type": "VEC3"
    },
    {
      "bufferView": 10,
      "componentType": 5126,
      "count": 2155,
      "type": "VEC2"
    },
    {
      "bufferView": 11,
      "componentType": 5123,
      "count": 3240,
      "type": "SCALAR"
    },
    {
      "bufferView": 12,
      "componentType": 5126,
      "count": 10455,
      "max": [
        0.28729310631752014,
        1.0015523433685303,
        0.5964825749397278
      ],
      "min": [
        -0.21351666748523712,
        0.030348889529705048,
        -1.314115047454834
      ],
      "type": "VEC3"
    },
    {
      "bufferView": 13,
      "componentType": 5126,
      "count": 10455,
      "type": "VEC3"
    },
    {
      "bufferView": 14,
      "componentType": 5126,
      "count": 10455,
      "type": "VEC2"
    },
    {
      "bufferView": 15,
      "componentType": 5123,
      "count": 16404,
      "type": "SCALAR"
    },
    {
      "bufferView": 16,
      "componentType": 5126,
      "count": 128,
      "max": [
        0.023095807060599327,
        0.6946925520896912,
        0.6096444129943848
      ],
      "min": [
        0.013569739647209644,
        0.01718703843653202,
        -1.3272769451141357
      ],
      "type": "VEC3"
    },
    {
      "bufferView": 17,
      "componentType": 5126,
      "count": 128,
      "type": "VEC3"
    },
    {
      "bufferView": 18,
      "componentType": 5126,
      "count": 128,
      "type": "VEC2"
    },
    {
      "bufferView": 19,
      "componentType": 5123,
      "count": 192,
      "type": "SCALAR"
    },
    {
      "bufferView": 20,
      "componentType": 5126,
      "count": 512,
      "max": [
        0.013569829054176807,
        0.6858929395675659,
        0.6008447408676147
      ],
      "min": [
        -0.013937866315245628,
        0.02598661743104458,
        -1.3184772729873657
      ],
      "type": "VEC3"
    },
    {
      "bufferView": 21,
      "componentType": 5126,
      "count": 512,
      "type": "VEC3"
    },
    {
      "bufferView": 22,
      "componentType": 5126,
      "count": 512,
      "type": "VEC2"
    },
    {
      "bufferView": 23,
      "componentType": 5123,
      "count": 768,
      "type": "SCALAR"
    }
  ],
  "bufferViews": [
    {
      "buffer": 0,
      "byteLength": 16968,
      "byteOffset": 0
    },
    {
      "buffer": 0,
      "byteLength": 16968,
      "byteOffset": 16968
    },
    {
      "buffer": 0,
      "byteLength": 11312,
      "byteOffset": 33936
    },
    {
      "buffer": 0,
      "byteLength": 4164,
      "byteOffset": 45248
    },
    {
      "buffer": 0,
      "byteLength": 21444,
      "byteOffset": 49412
    },
    {
      "buffer": 0,
      "byteLength": 21444,
      "byteOffset": 70856
    },
    {
      "buffer": 0,
      "byteLength": 14296,
      "byteOffset": 92300
    },
    {
      "buffer": 0,
      "byteLength": 5376,
      "byteOffset": 106596
    },
    {
      "buffer": 0,
      "byteLength": 25860,
      "byteOffset": 111972
    },
    {
      "buffer": 0,
      "byteLength": 25860,
      "byteOffset": 137832
    },
    {
      "buffer": 0,
      "byteLength": 17240,
      "byteOffset": 163692
    },
    {
      "buffer": 0,
      "byteLength": 6480,
      "byteOffset": 180932
    },
    {
      "buffer": 0,
      "byteLength": 125460,
      "byteOffset": 187412
    },
    {
      "buffer": 0,
      "byteLength": 125460,
      "byteOffset": 312872
    },
    {
      "buffer": 0,
      "byteLength": 83640,
      "byteOffset": 438332
    },
    {
      "buffer": 0,
      "byteLength": 32808,
      "byteOffset": 521972
    },
    {
      "buffer": 0,
      "byteLength": 1536,
      "byteOffset": 554780
    },
    {
      "buffer": 0,
      "byteLength": 1536,
      "byteOffset": 556316
    },
    {
      "buffer": 0,
      "byteLength": 1024,
      "byteOffset": 557852
    },
    {
      "buffer": 0,
      "byteLength": 384,
      "byteOffset": 558876
    },
    {
      "buffer": 0,
      "byteLength": 6144,
      "byteOffset": 559260
    },
    {
      "buffer": 0,
      "byteLength": 6144,
      "byteOffset": 565404
    },
    {
      "buffer": 0,
      "byteLength": 4096,
      "byteOffset": 571548
    },
    {
      "buffer": 0,
      "byteLength": 1536,
      "byteOffset": 575644
    }
  ],
  "samplers": [
    {
      "magFilter": 9729,
      "minFilter": 9987
    }
  ],
  "buffers": [
    {
      "uri": "SpringWomanA.001_data.bin",
      "byteLength": 577180
    }
  ]
}