{
  "asset": {
    "copyright": "By Studio Ochi",
    "generator": "Khronos glTF Blender I/O v1.5.17",
    "version": "2.0"
  },
  "scene": 0,
  "scenes": [
    {
      "name": "Scene",
      "nodes": [
        0
      ]
    }
  ],
  "nodes": [
    {
      "mesh": 0,
      "name": "SpringBaby.006"
    }
  ],
  "materials": [
    {
      "doubleSided": true,
      "name": "Spring03",
      "pbrMetallicRoughness": {
        "baseColorTexture": {
          "index": 0
        },
        "metallicFactor": 0,
        "roughnessFactor": 0.5
      }
    }
  ],
  "meshes": [
    {
      "name": "SpringBaby.008",
      "primitives": [
        {
          "attributes": {
            "POSITION": 0,
            "NORMAL": 1,
            "TEXCOORD_0": 2
          },
          "indices": 3,
          "material": 0
        }
      ]
    }
  ],
  "textures": [
    {
      "sampler": 0,
      "source": 0
    }
  ],
  "images": [
    {
      "name": "StudioOchi_SpringPeople.003",
      "uri": "SpringBaby.006_img0.png"
    }
  ],
  "accessors": [
    {
      "bufferView": 0,
      "componentType": 5126,
      "count": 1052,
      "max": [
        0.12466390430927277,
        0.5785883069038391,
        0.10685843229293823
      ],
      "min": [
        -0.12334221601486206,
        -0.001984234666451812,
        -0.18829715251922607
      ],
      "type": "VEC3"
    },
    {
      "bufferView": 1,
      "componentType": 5126,
      "count": 1052,
      "type": "VEC3"
    },
    {
      "bufferView": 2,
      "componentType": 5126,
      "count": 1052,
      "type": "VEC2"
    },
    {
      "bufferView": 3,
      "componentType": 5123,
      "count": 1548,
      "type": "SCALAR"
    }
  ],
  "bufferViews": [
    {
      "buffer": 0,
      "byteLength": 12624,
      "byteOffset": 0
    },
    {
      "buffer": 0,
      "byteLength": 12624,
      "byteOffset": 12624
    },
    {
      "buffer": 0,
      "byteLength": 8416,
      "byteOffset": 25248
    },
    {
      "buffer": 0,
      "byteLength": 3096,
      "byteOffset": 33664
    }
  ],
  "samplers": [
    {
      "magFilter": 9729,
      "minFilter": 9987
    }
  ],
  "buffers": [
    {
      "uri": "SpringBaby.006_data.bin",
      "byteLength": 36760
    }
  ]
}