{
  "asset": {
    "copyright": "By Studio Ochi",
    "generator": "Khronos glTF Blender I/O v1.5.17",
    "version": "2.0"
  },
  "extensionsUsed": [
    "KHR_materials_clearcoat"
  ],
  "scene": 0,
  "scenes": [
    {
      "name": "Scene",
      "nodes": [
        0
      ]
    }
  ],
  "nodes": [
    {
      "mesh": 0,
      "name": "SpringGirl.011"
    }
  ],
  "materials": [
    {
      "doubleSided": true,
      "name": "Spring01",
      "pbrMetallicRoughness": {
        "baseColorTexture": {
          "index": 0
        },
        "metallicFactor": 0,
        "roughnessFactor": 0.5
      }
    },
    {
      "doubleSided": true,
      "extensions": {
        "KHR_materials_clearcoat": {
          "clearcoatFactor": 1,
          "clearcoatRoughnessFactor": 0.029999999329447746
        }
      },
      "name": "Blue",
      "pbrMetallicRoughness": {
        "baseColorFactor": [
          0.019706282764673233,
          0.03491701930761337,
          0.0984848290681839,
          1
        ],
        "metallicFactor": 0,
        "roughnessFactor": 0.5
      }
    },
    {
      "doubleSided": true,
      "name": "Black",
      "pbrMetallicRoughness": {
        "baseColorFactor": [
          0,
          0,
          0,
          1
        ],
        "metallicFactor": 0,
        "roughnessFactor": 0.5
      }
    },
    {
      "doubleSided": true,
      "name": "Steel",
      "pbrMetallicRoughness": {
        "baseColorFactor": [
          0.2597902715206146,
          0.2597902715206146,
          0.2597902715206146,
          1
        ],
        "metallicFactor": 0.5,
        "roughnessFactor": 0.25
      }
    },
    {
      "doubleSided": true,
      "name": "Yellow",
      "pbrMetallicRoughness": {
        "baseColorFactor": [
          0.8000000715255737,
          0.4196889400482178,
          0,
          1
        ],
        "metallicFactor": 0,
        "roughnessFactor": 0.5
      }
    },
    {
      "doubleSided": true,
      "name": "White",
      "pbrMetallicRoughness": {
        "metallicFactor": 0,
        "roughnessFactor": 0.5
      }
    }
  ],
  "meshes": [
    {
      "name": "SpringGirl.013",
      "primitives": [
        {
          "attributes": {
            "POSITION": 0,
            "NORMAL": 1,
            "TEXCOORD_0": 2
          },
          "indices": 3,
          "material": 0
        },
        {
          "attributes": {
            "POSITION": 4,
            "NORMAL": 5,
            "TEXCOORD_0": 6
          },
          "indices": 7,
          "material": 1
        },
        {
          "attributes": {
            "POSITION": 8,
            "NORMAL": 9,
            "TEXCOORD_0": 10
          },
          "indices": 11,
          "material": 2
        },
        {
          "attributes": {
            "POSITION": 12,
            "NORMAL": 13,
            "TEXCOORD_0": 14
          },
          "indices": 15,
          "material": 3
        },
        {
          "attributes": {
            "POSITION": 16,
            "NORMAL": 17,
            "TEXCOORD_0": 18
          },
          "indices": 19,
          "material": 4
        },
        {
          "attributes": {
            "POSITION": 20,
            "NORMAL": 21,
            "TEXCOORD_0": 22
          },
          "indices": 23,
          "material": 5
        }
      ]
    }
  ],
  "textures": [
    {
      "sampler": 0,
      "source": 0
    }
  ],
  "images": [
    {
      "name": "StudioOchi_SpringPeople.001",
      "uri": "SpringGirl.002_img0.png"
    }
  ],
  "accessors": [
    {
      "bufferView": 0,
      "componentType": 5126,
      "count": 1260,
      "max": [
        0.24602395296096802,
        1.144265055656433,
        0.0017339431215077639
      ],
      "min": [
        -0.22691412270069122,
        0.1475740224123001,
        -0.535636305809021
      ],
      "type": "VEC3"
    },
    {
      "bufferView": 1,
      "componentType": 5126,
      "count": 1260,
      "type": "VEC3"
    },
    {
      "bufferView": 2,
      "componentType": 5126,
      "count": 1260,
      "type": "VEC2"
    },
    {
      "bufferView": 3,
      "componentType": 5123,
      "count": 1860,
      "type": "SCALAR"
    },
    {
      "bufferView": 4,
      "componentType": 5126,
      "count": 1788,
      "max": [
        0.1683495044708252,
        0.702533483505249,
        0.21286945044994354
      ],
      "min": [
        -0.1601899266242981,
        0.2300366759300232,
        -0.7299994826316833
      ],
      "type": "VEC3"
    },
    {
      "bufferView": 5,
      "componentType": 5126,
      "count": 1788,
      "type": "VEC3"
    },
    {
      "bufferView": 6,
      "componentType": 5126,
      "count": 1788,
      "type": "VEC2"
    },
    {
      "bufferView": 7,
      "componentType": 5123,
      "count": 2688,
      "type": "SCALAR"
    },
    {
      "bufferView": 8,
      "componentType": 5126,
      "count": 2160,
      "max": [
        0.27129819989204407,
        0.7181300520896912,
        0.45468464493751526
      ],
      "min": [
        -0.2608460783958435,
        -0.005878865718841553,
        -0.9685054421424866
      ],
      "type": "VEC3"
    },
    {
      "bufferView": 9,
      "componentType": 5126,
      "count": 2160,
      "type": "VEC3"
    },
    {
      "bufferView": 10,
      "componentType": 5126,
      "count": 2160,
      "type": "VEC2"
    },
    {
      "bufferView": 11,
      "componentType": 5123,
      "count": 3240,
      "type": "SCALAR"
    },
    {
      "bufferView": 12,
      "componentType": 5126,
      "count": 10920,
      "max": [
        0.20665301382541656,
        0.7215086817741394,
        0.42257678508758545
      ],
      "min": [
        -0.1538296639919281,
        0.026229022070765495,
        -0.9363975524902344
      ],
      "type": "VEC3"
    },
    {
      "bufferView": 13,
      "componentType": 5126,
      "count": 10920,
      "type": "VEC3"
    },
    {
      "bufferView": 14,
      "componentType": 5126,
      "count": 10920,
      "type": "VEC2"
    },
    {
      "bufferView": 15,
      "componentType": 5123,
      "count": 16404,
      "type": "SCALAR"
    },
    {
      "bufferView": 16,
      "componentType": 5126,
      "count": 128,
      "max": [
        0.022433770820498466,
        0.4950072169303894,
        0.43411266803741455
      ],
      "min": [
        0.015178512781858444,
        0.014693139120936394,
        -0.9479333758354187
      ],
      "type": "VEC3"
    },
    {
      "bufferView": 17,
      "componentType": 5126,
      "count": 128,
      "type": "VEC3"
    },
    {
      "bufferView": 18,
      "componentType": 5126,
      "count": 128,
      "type": "VEC2"
    },
    {
      "bufferView": 19,
      "componentType": 5123,
      "count": 192,
      "type": "SCALAR"
    },
    {
      "bufferView": 20,
      "componentType": 5126,
      "count": 512,
      "max": [
        0.015178579837083817,
        0.4878583252429962,
        0.42696377635002136
      ],
      "min": [
        -0.015442091971635818,
        0.02184196561574936,
        -0.9407845139503479
      ],
      "type": "VEC3"
    },
    {
      "bufferView": 21,
      "componentType": 5126,
      "count": 512,
      "type": "VEC3"
    },
    {
      "bufferView": 22,
      "componentType": 5126,
      "count": 512,
      "type": "VEC2"
    },
    {
      "bufferView": 23,
      "componentType": 5123,
      "count": 768,
      "type": "SCALAR"
    }
  ],
  "bufferViews": [
    {
      "buffer": 0,
      "byteLength": 15120,
      "byteOffset": 0
    },
    {
      "buffer": 0,
      "byteLength": 15120,
      "byteOffset": 15120
    },
    {
      "buffer": 0,
      "byteLength": 10080,
      "byteOffset": 30240
    },
    {
      "buffer": 0,
      "byteLength": 3720,
      "byteOffset": 40320
    },
    {
      "buffer": 0,
      "byteLength": 21456,
      "byteOffset": 44040
    },
    {
      "buffer": 0,
      "byteLength": 21456,
      "byteOffset": 65496
    },
    {
      "buffer": 0,
      "byteLength": 14304,
      "byteOffset": 86952
    },
    {
      "buffer": 0,
      "byteLength": 5376,
      "byteOffset": 101256
    },
    {
      "buffer": 0,
      "byteLength": 25920,
      "byteOffset": 106632
    },
    {
      "buffer": 0,
      "byteLength": 25920,
      "byteOffset": 132552
    },
    {
      "buffer": 0,
      "byteLength": 17280,
      "byteOffset": 158472
    },
    {
      "buffer": 0,
      "byteLength": 6480,
      "byteOffset": 175752
    },
    {
      "buffer": 0,
      "byteLength": 131040,
      "byteOffset": 182232
    },
    {
      "buffer": 0,
      "byteLength": 131040,
      "byteOffset": 313272
    },
    {
      "buffer": 0,
      "byteLength": 87360,
      "byteOffset": 444312
    },
    {
      "buffer": 0,
      "byteLength": 32808,
      "byteOffset": 531672
    },
    {
      "buffer": 0,
      "byteLength": 1536,
      "byteOffset": 564480
    },
    {
      "buffer": 0,
      "byteLength": 1536,
      "byteOffset": 566016
    },
    {
      "buffer": 0,
      "byteLength": 1024,
      "byteOffset": 567552
    },
    {
      "buffer": 0,
      "byteLength": 384,
      "byteOffset": 568576
    },
    {
      "buffer": 0,
      "byteLength": 6144,
      "byteOffset": 568960
    },
    {
      "buffer": 0,
      "byteLength": 6144,
      "byteOffset": 575104
    },
    {
      "buffer": 0,
      "byteLength": 4096,
      "byteOffset": 581248
    },
    {
      "buffer": 0,
      "byteLength": 1536,
      "byteOffset": 585344
    }
  ],
  "samplers": [
    {
      "magFilter": 9729,
      "minFilter": 9987
    }
  ],
  "buffers": [
    {
      "uri": "SpringGirl.002_data.bin",
      "byteLength": 586880
    }
  ]
}