{
  "asset": {
    "copyright": "By Studio Ochi",
    "generator": "Khronos glTF Blender I/O v1.5.17",
    "version": "2.0"
  },
  "scene": 0,
  "scenes": [
    {
      "name": "Scene",
      "nodes": [
        0
      ]
    }
  ],
  "nodes": [
    {
      "mesh": 0,
      "name": "SpringManA.009"
    }
  ],
  "materials": [
    {
      "doubleSided": true,
      "name": "Spring01",
      "pbrMetallicRoughness": {
        "baseColorTexture": {
          "index": 0
        },
        "metallicFactor": 0,
        "roughnessFactor": 0.5
      }
    }
  ],
  "meshes": [
    {
      "name": "SpringManA.009",
      "primitives": [
        {
          "attributes": {
            "POSITION": 0,
            "NORMAL": 1,
            "TEXCOORD_0": 2
          },
          "indices": 3,
          "material": 0
        }
      ]
    }
  ],
  "textures": [
    {
      "sampler": 0,
      "source": 0
    }
  ],
  "images": [
    {
      "name": "StudioOchi_SpringPeople.001",
      "uri": "SpringManA.009_img0.png"
    }
  ],
  "accessors": [
    {
      "bufferView": 0,
      "componentType": 5126,
      "count": 1310,
      "max": [
        0.2895506024360657,
        1.7454392910003662,
        0.12188839167356491
      ],
      "min": [
        -0.2208915650844574,
        -0.025622127577662468,
        -0.18503734469413757
      ],
      "type": "VEC3"
    },
    {
      "bufferView": 1,
      "componentType": 5126,
      "count": 1310,
      "type": "VEC3"
    },
    {
      "bufferView": 2,
      "componentType": 5126,
      "count": 1310,
      "type": "VEC2"
    },
    {
      "bufferView": 3,
      "componentType": 5123,
      "count": 1926,
      "type": "SCALAR"
    }
  ],
  "bufferViews": [
    {
      "buffer": 0,
      "byteLength": 15720,
      "byteOffset": 0
    },
    {
      "buffer": 0,
      "byteLength": 15720,
      "byteOffset": 15720
    },
    {
      "buffer": 0,
      "byteLength": 10480,
      "byteOffset": 31440
    },
    {
      "buffer": 0,
      "byteLength": 3852,
      "byteOffset": 41920
    }
  ],
  "samplers": [
    {
      "magFilter": 9729,
      "minFilter": 9987
    }
  ],
  "buffers": [
    {
      "uri": "SpringManA.009_data.bin",
      "byteLength": 45772
    }
  ]
}