{
  "asset": {
    "copyright": "By Studio Ochi",
    "generator": "Khronos glTF Blender I/O v1.5.17",
    "version": "2.0"
  },
  "scene": 0,
  "scenes": [
    {
      "name": "Scene",
      "nodes": [
        0
      ]
    }
  ],
  "nodes": [
    {
      "mesh": 0,
      "name": "SpringWomanC.007"
    }
  ],
  "materials": [
    {
      "doubleSided": true,
      "name": "Spring03",
      "pbrMetallicRoughness": {
        "baseColorTexture": {
          "index": 0
        },
        "metallicFactor": 0,
        "roughnessFactor": 0.5
      }
    }
  ],
  "meshes": [
    {
      "name": "SpringWomanC.007",
      "primitives": [
        {
          "attributes": {
            "POSITION": 0,
            "NORMAL": 1,
            "TEXCOORD_0": 2
          },
          "indices": 3,
          "material": 0
        }
      ]
    }
  ],
  "textures": [
    {
      "sampler": 0,
      "source": 0
    }
  ],
  "images": [
    {
      "name": "StudioOchi_SpringPeople.003",
      "uri": "SpringWomanC.006_img0.png"
    }
  ],
  "accessors": [
    {
      "bufferView": 0,
      "componentType": 5126,
      "count": 1352,
      "max": [
        0.25093257427215576,
        1.6987671852111816,
        0.16036422550678253
      ],
      "min": [
        -0.2509032189846039,
        -0.004397888667881489,
        -0.172251895070076
      ],
      "type": "VEC3"
    },
    {
      "bufferView": 1,
      "componentType": 5126,
      "count": 1352,
      "type": "VEC3"
    },
    {
      "bufferView": 2,
      "componentType": 5126,
      "count": 1352,
      "type": "VEC2"
    },
    {
      "bufferView": 3,
      "componentType": 5123,
      "count": 1992,
      "type": "SCALAR"
    }
  ],
  "bufferViews": [
    {
      "buffer": 0,
      "byteLength": 16224,
      "byteOffset": 0
    },
    {
      "buffer": 0,
      "byteLength": 16224,
      "byteOffset": 16224
    },
    {
      "buffer": 0,
      "byteLength": 10816,
      "byteOffset": 32448
    },
    {
      "buffer": 0,
      "byteLength": 3984,
      "byteOffset": 43264
    }
  ],
  "samplers": [
    {
      "magFilter": 9729,
      "minFilter": 9987
    }
  ],
  "buffers": [
    {
      "uri": "SpringWomanC.006_data.bin",
      "byteLength": 47248
    }
  ]
}