{
  "asset": {
    "copyright": "By Studio Ochi",
    "generator": "Khronos glTF Blender I/O v1.5.17",
    "version": "2.0"
  },
  "extensionsUsed": [
    "KHR_materials_clearcoat"
  ],
  "scene": 0,
  "scenes": [
    {
      "name": "Scene",
      "nodes": [
        0
      ]
    }
  ],
  "nodes": [
    {
      "mesh": 0,
      "name": "SpringBoy.011"
    }
  ],
  "materials": [
    {
      "doubleSided": true,
      "name": "Spring02",
      "pbrMetallicRoughness": {
        "baseColorTexture": {
          "index": 0
        },
        "metallicFactor": 0,
        "roughnessFactor": 0.5
      }
    },
    {
      "doubleSided": true,
      "extensions": {
        "KHR_materials_clearcoat": {
          "clearcoatFactor": 1,
          "clearcoatRoughnessFactor": 0.029999999329447746
        }
      },
      "name": "Blue",
      "pbrMetallicRoughness": {
        "baseColorFactor": [
          0.019706282764673233,
          0.03491701930761337,
          0.0984848290681839,
          1
        ],
        "metallicFactor": 0,
        "roughnessFactor": 0.5
      }
    },
    {
      "doubleSided": true,
      "name": "Black",
      "pbrMetallicRoughness": {
        "baseColorFactor": [
          0,
          0,
          0,
          1
        ],
        "metallicFactor": 0,
        "roughnessFactor": 0.5
      }
    },
    {
      "doubleSided": true,
      "name": "Steel",
      "pbrMetallicRoughness": {
        "baseColorFactor": [
          0.2597902715206146,
          0.2597902715206146,
          0.2597902715206146,
          1
        ],
        "metallicFactor": 0.5,
        "roughnessFactor": 0.25
      }
    },
    {
      "doubleSided": true,
      "name": "Yellow",
      "pbrMetallicRoughness": {
        "baseColorFactor": [
          0.8000000715255737,
          0.4196889400482178,
          0,
          1
        ],
        "metallicFactor": 0,
        "roughnessFactor": 0.5
      }
    },
    {
      "doubleSided": true,
      "name": "White",
      "pbrMetallicRoughness": {
        "metallicFactor": 0,
        "roughnessFactor": 0.5
      }
    }
  ],
  "meshes": [
    {
      "name": "SpringBoy.013",
      "primitives": [
        {
          "attributes": {
            "POSITION": 0,
            "NORMAL": 1,
            "TEXCOORD_0": 2
          },
          "indices": 3,
          "material": 0
        },
        {
          "attributes": {
            "POSITION": 4,
            "NORMAL": 5,
            "TEXCOORD_0": 6
          },
          "indices": 7,
          "material": 1
        },
        {
          "attributes": {
            "POSITION": 8,
            "NORMAL": 9,
            "TEXCOORD_0": 10
          },
          "indices": 11,
          "material": 2
        },
        {
          "attributes": {
            "POSITION": 12,
            "NORMAL": 13,
            "TEXCOORD_0": 14
          },
          "indices": 15,
          "material": 3
        },
        {
          "attributes": {
            "POSITION": 16,
            "NORMAL": 17,
            "TEXCOORD_0": 18
          },
          "indices": 19,
          "material": 4
        },
        {
          "attributes": {
            "POSITION": 20,
            "NORMAL": 21,
            "TEXCOORD_0": 22
          },
          "indices": 23,
          "material": 5
        }
      ]
    }
  ],
  "textures": [
    {
      "sampler": 0,
      "source": 0
    }
  ],
  "images": [
    {
      "name": "StudioOchi_SpringPeople.002",
      "uri": "SpringBoy.002_img0.png"
    }
  ],
  "accessors": [
    {
      "bufferView": 0,
      "componentType": 5126,
      "count": 1590,
      "max": [
        0.2482873499393463,
        1.175207495689392,
        0.003469709772616625
      ],
      "min": [
        -0.22666898369789124,
        0.1477862149477005,
        -0.532758355140686
      ],
      "type": "VEC3"
    },
    {
      "bufferView": 1,
      "componentType": 5126,
      "count": 1590,
      "type": "VEC3"
    },
    {
      "bufferView": 2,
      "componentType": 5126,
      "count": 1590,
      "type": "VEC2"
    },
    {
      "bufferView": 3,
      "componentType": 5123,
      "count": 2346,
      "type": "SCALAR"
    },
    {
      "bufferView": 4,
      "componentType": 5126,
      "count": 1788,
      "max": [
        0.168349489569664,
        0.7025334239006042,
        0.21286943554878235
      ],
      "min": [
        -0.1601899266242981,
        0.230036661028862,
        -0.7299994230270386
      ],
      "type": "VEC3"
    },
    {
      "bufferView": 5,
      "componentType": 5126,
      "count": 1788,
      "type": "VEC3"
    },
    {
      "bufferView": 6,
      "componentType": 5126,
      "count": 1788,
      "type": "VEC2"
    },
    {
      "bufferView": 7,
      "componentType": 5123,
      "count": 2688,
      "type": "SCALAR"
    },
    {
      "bufferView": 8,
      "componentType": 5126,
      "count": 2160,
      "max": [
        0.2712981700897217,
        0.7181299328804016,
        0.45468461513519287
      ],
      "min": [
        -0.2608460485935211,
        -0.005878865253180265,
        -0.968505322933197
      ],
      "type": "VEC3"
    },
    {
      "bufferView": 9,
      "componentType": 5126,
      "count": 2160,
      "type": "VEC3"
    },
    {
      "bufferView": 10,
      "componentType": 5126,
      "count": 2160,
      "type": "VEC2"
    },
    {
      "bufferView": 11,
      "componentType": 5123,
      "count": 3240,
      "type": "SCALAR"
    },
    {
      "bufferView": 12,
      "componentType": 5126,
      "count": 10926,
      "max": [
        0.20665299892425537,
        0.7215086817741394,
        0.42257675528526306
      ],
      "min": [
        -0.1538296341896057,
        0.026229020208120346,
        -0.9363974332809448
      ],
      "type": "VEC3"
    },
    {
      "bufferView": 13,
      "componentType": 5126,
      "count": 10926,
      "type": "VEC3"
    },
    {
      "bufferView": 14,
      "componentType": 5126,
      "count": 10926,
      "type": "VEC2"
    },
    {
      "bufferView": 15,
      "componentType": 5123,
      "count": 16404,
      "type": "SCALAR"
    },
    {
      "bufferView": 16,
      "componentType": 5126,
      "count": 128,
      "max": [
        0.022433767095208168,
        0.49500715732574463,
        0.43411263823509216
      ],
      "min": [
        0.01517851185053587,
        0.014693138189613819,
        -0.9479333162307739
      ],
      "type": "VEC3"
    },
    {
      "bufferView": 17,
      "componentType": 5126,
      "count": 128,
      "type": "VEC3"
    },
    {
      "bufferView": 18,
      "componentType": 5126,
      "count": 128,
      "type": "VEC2"
    },
    {
      "bufferView": 19,
      "componentType": 5123,
      "count": 192,
      "type": "SCALAR"
    },
    {
      "bufferView": 20,
      "componentType": 5126,
      "count": 512,
      "max": [
        0.015178579837083817,
        0.48785829544067383,
        0.426963746547699
      ],
      "min": [
        -0.015442091040313244,
        0.02184196375310421,
        -0.9407844543457031
      ],
      "type": "VEC3"
    },
    {
      "bufferView": 21,
      "componentType": 5126,
      "count": 512,
      "type": "VEC3"
    },
    {
      "bufferView": 22,
      "componentType": 5126,
      "count": 512,
      "type": "VEC2"
    },
    {
      "bufferView": 23,
      "componentType": 5123,
      "count": 768,
      "type": "SCALAR"
    }
  ],
  "bufferViews": [
    {
      "buffer": 0,
      "byteLength": 19080,
      "byteOffset": 0
    },
    {
      "buffer": 0,
      "byteLength": 19080,
      "byteOffset": 19080
    },
    {
      "buffer": 0,
      "byteLength": 12720,
      "byteOffset": 38160
    },
    {
      "buffer": 0,
      "byteLength": 4692,
      "byteOffset": 50880
    },
    {
      "buffer": 0,
      "byteLength": 21456,
      "byteOffset": 55572
    },
    {
      "buffer": 0,
      "byteLength": 21456,
      "byteOffset": 77028
    },
    {
      "buffer": 0,
      "byteLength": 14304,
      "byteOffset": 98484
    },
    {
      "buffer": 0,
      "byteLength": 5376,
      "byteOffset": 112788
    },
    {
      "buffer": 0,
      "byteLength": 25920,
      "byteOffset": 118164
    },
    {
      "buffer": 0,
      "byteLength": 25920,
      "byteOffset": 144084
    },
    {
      "buffer": 0,
      "byteLength": 17280,
      "byteOffset": 170004
    },
    {
      "buffer": 0,
      "byteLength": 6480,
      "byteOffset": 187284
    },
    {
      "buffer": 0,
      "byteLength": 131112,
      "byteOffset": 193764
    },
    {
      "buffer": 0,
      "byteLength": 131112,
      "byteOffset": 324876
    },
    {
      "buffer": 0,
      "byteLength": 87408,
      "byteOffset": 455988
    },
    {
      "buffer": 0,
      "byteLength": 32808,
      "byteOffset": 543396
    },
    {
      "buffer": 0,
      "byteLength": 1536,
      "byteOffset": 576204
    },
    {
      "buffer": 0,
      "byteLength": 1536,
      "byteOffset": 577740
    },
    {
      "buffer": 0,
      "byteLength": 1024,
      "byteOffset": 579276
    },
    {
      "buffer": 0,
      "byteLength": 384,
      "byteOffset": 580300
    },
    {
      "buffer": 0,
      "byteLength": 6144,
      "byteOffset": 580684
    },
    {
      "buffer": 0,
      "byteLength": 6144,
      "byteOffset": 586828
    },
    {
      "buffer": 0,
      "byteLength": 4096,
      "byteOffset": 592972
    },
    {
      "buffer": 0,
      "byteLength": 1536,
      "byteOffset": 597068
    }
  ],
  "samplers": [
    {
      "magFilter": 9729,
      "minFilter": 9987
    }
  ],
  "buffers": [
    {
      "uri": "SpringBoy.002_data.bin",
      "byteLength": 598604
    }
  ]
}