{
  "asset": {
    "copyright": "By Studio Ochi",
    "generator": "Khronos glTF Blender I/O v1.5.17",
    "version": "2.0"
  },
  "extensionsUsed": [
    "KHR_materials_clearcoat"
  ],
  "scene": 0,
  "scenes": [
    {
      "name": "Scene",
      "nodes": [
        0
      ]
    }
  ],
  "nodes": [
    {
      "mesh": 0,
      "name": "SpringManC.001"
    }
  ],
  "materials": [
    {
      "doubleSided": true,
      "name": "Spring03",
      "pbrMetallicRoughness": {
        "baseColorTexture": {
          "index": 0
        },
        "metallicFactor": 0,
        "roughnessFactor": 0.5
      }
    },
    {
      "doubleSided": true,
      "extensions": {
        "KHR_materials_clearcoat": {
          "clearcoatFactor": 1,
          "clearcoatRoughnessFactor": 0.029999999329447746
        }
      },
      "name": "Blue",
      "pbrMetallicRoughness": {
        "baseColorFactor": [
          0.019706282764673233,
          0.03491701930761337,
          0.0984848290681839,
          1
        ],
        "metallicFactor": 0,
        "roughnessFactor": 0.5
      }
    },
    {
      "doubleSided": true,
      "name": "Black",
      "pbrMetallicRoughness": {
        "baseColorFactor": [
          0,
          0,
          0,
          1
        ],
        "metallicFactor": 0,
        "roughnessFactor": 0.5
      }
    },
    {
      "doubleSided": true,
      "name": "Steel",
      "pbrMetallicRoughness": {
        "baseColorFactor": [
          0.2597902715206146,
          0.2597902715206146,
          0.2597902715206146,
          1
        ],
        "metallicFactor": 0.5,
        "roughnessFactor": 0.25
      }
    },
    {
      "doubleSided": true,
      "name": "Yellow",
      "pbrMetallicRoughness": {
        "baseColorFactor": [
          0.8000000715255737,
          0.4196889400482178,
          0,
          1
        ],
        "metallicFactor": 0,
        "roughnessFactor": 0.5
      }
    },
    {
      "doubleSided": true,
      "name": "White",
      "pbrMetallicRoughness": {
        "metallicFactor": 0,
        "roughnessFactor": 0.5
      }
    }
  ],
  "meshes": [
    {
      "name": "SpringManC.012",
      "primitives": [
        {
          "attributes": {
            "POSITION": 0,
            "NORMAL": 1,
            "TEXCOORD_0": 2
          },
          "indices": 3,
          "material": 0
        },
        {
          "attributes": {
            "POSITION": 4,
            "NORMAL": 5,
            "TEXCOORD_0": 6
          },
          "indices": 7,
          "material": 1
        },
        {
          "attributes": {
            "POSITION": 8,
            "NORMAL": 9,
            "TEXCOORD_0": 10
          },
          "indices": 11,
          "material": 2
        },
        {
          "attributes": {
            "POSITION": 12,
            "NORMAL": 13,
            "TEXCOORD_0": 14
          },
          "indices": 15,
          "material": 3
        },
        {
          "attributes": {
            "POSITION": 16,
            "NORMAL": 17,
            "TEXCOORD_0": 18
          },
          "indices": 19,
          "material": 4
        },
        {
          "attributes": {
            "POSITION": 20,
            "NORMAL": 21,
            "TEXCOORD_0": 22
          },
          "indices": 23,
          "material": 5
        }
      ]
    }
  ],
  "textures": [
    {
      "sampler": 0,
      "source": 0
    }
  ],
  "images": [
    {
      "name": "StudioOchi_SpringPeople.003",
      "uri": "SpringManC.001_img0.png"
    }
  ],
  "accessors": [
    {
      "bufferView": 0,
      "componentType": 5126,
      "count": 1392,
      "max": [
        0.3623301684856415,
        1.657328486442566,
        0.009293046779930592
      ],
      "min": [
        -0.33173584938049316,
        0.21313737332820892,
        -0.7621066570281982
      ],
      "type": "VEC3"
    },
    {
      "bufferView": 1,
      "componentType": 5126,
      "count": 1392,
      "type": "VEC3"
    },
    {
      "bufferView": 2,
      "componentType": 5126,
      "count": 1392,
      "type": "VEC2"
    },
    {
      "bufferView": 3,
      "componentType": 5123,
      "count": 2052,
      "type": "SCALAR"
    },
    {
      "bufferView": 4,
      "componentType": 5126,
      "count": 1786,
      "max": [
        0.23463140428066254,
        0.9793890714645386,
        0.29168501496315
      ],
      "min": [
        -0.22285813093185425,
        0.32843101024627686,
        -1.0122510194778442
      ],
      "type": "VEC3"
    },
    {
      "bufferView": 5,
      "componentType": 5126,
      "count": 1786,
      "type": "VEC3"
    },
    {
      "bufferView": 6,
      "componentType": 5126,
      "count": 1786,
      "type": "VEC2"
    },
    {
      "bufferView": 7,
      "componentType": 5123,
      "count": 2688,
      "type": "SCALAR"
    },
    {
      "bufferView": 8,
      "componentType": 5126,
      "count": 2156,
      "max": [
        0.3724478781223297,
        0.9956077933311462,
        0.6269537210464478
      ],
      "min": [
        -0.3576752245426178,
        -0.00012332481855992228,
        -1.3445881605148315
      ],
      "type": "VEC3"
    },
    {
      "bufferView": 9,
      "componentType": 5126,
      "count": 2156,
      "type": "VEC3"
    },
    {
      "bufferView": 10,
      "componentType": 5126,
      "count": 2156,
      "type": "VEC2"
    },
    {
      "bufferView": 11,
      "componentType": 5123,
      "count": 3240,
      "type": "SCALAR"
    },
    {
      "bufferView": 12,
      "componentType": 5126,
      "count": 10495,
      "max": [
        0.28729310631752014,
        1.0015523433685303,
        0.5964815616607666
      ],
      "min": [
        -0.21351665258407593,
        0.0303488876670599,
        -1.3141158819198608
      ],
      "type": "VEC3"
    },
    {
      "bufferView": 13,
      "componentType": 5126,
      "count": 10495,
      "type": "VEC3"
    },
    {
      "bufferView": 14,
      "componentType": 5126,
      "count": 10495,
      "type": "VEC2"
    },
    {
      "bufferView": 15,
      "componentType": 5123,
      "count": 16404,
      "type": "SCALAR"
    },
    {
      "bufferView": 16,
      "componentType": 5126,
      "count": 128,
      "max": [
        0.023095807060599327,
        0.6946924924850464,
        0.6096433997154236
      ],
      "min": [
        0.013569739647209644,
        0.01718703843653202,
        -1.3272777795791626
      ],
      "type": "VEC3"
    },
    {
      "bufferView": 17,
      "componentType": 5126,
      "count": 128,
      "type": "VEC3"
    },
    {
      "bufferView": 18,
      "componentType": 5126,
      "count": 128,
      "type": "VEC2"
    },
    {
      "bufferView": 19,
      "componentType": 5123,
      "count": 192,
      "type": "SCALAR"
    },
    {
      "bufferView": 20,
      "componentType": 5126,
      "count": 512,
      "max": [
        0.013569828122854233,
        0.6858929395675659,
        0.6008437275886536
      ],
      "min": [
        -0.013937865383923054,
        0.02598661556839943,
        -1.3184781074523926
      ],
      "type": "VEC3"
    },
    {
      "bufferView": 21,
      "componentType": 5126,
      "count": 512,
      "type": "VEC3"
    },
    {
      "bufferView": 22,
      "componentType": 5126,
      "count": 512,
      "type": "VEC2"
    },
    {
      "bufferView": 23,
      "componentType": 5123,
      "count": 768,
      "type": "SCALAR"
    }
  ],
  "bufferViews": [
    {
      "buffer": 0,
      "byteLength": 16704,
      "byteOffset": 0
    },
    {
      "buffer": 0,
      "byteLength": 16704,
      "byteOffset": 16704
    },
    {
      "buffer": 0,
      "byteLength": 11136,
      "byteOffset": 33408
    },
    {
      "buffer": 0,
      "byteLength": 4104,
      "byteOffset": 44544
    },
    {
      "buffer": 0,
      "byteLength": 21432,
      "byteOffset": 48648
    },
    {
      "buffer": 0,
      "byteLength": 21432,
      "byteOffset": 70080
    },
    {
      "buffer": 0,
      "byteLength": 14288,
      "byteOffset": 91512
    },
    {
      "buffer": 0,
      "byteLength": 5376,
      "byteOffset": 105800
    },
    {
      "buffer": 0,
      "byteLength": 25872,
      "byteOffset": 111176
    },
    {
      "buffer": 0,
      "byteLength": 25872,
      "byteOffset": 137048
    },
    {
      "buffer": 0,
      "byteLength": 17248,
      "byteOffset": 162920
    },
    {
      "buffer": 0,
      "byteLength": 6480,
      "byteOffset": 180168
    },
    {
      "buffer": 0,
      "byteLength": 125940,
      "byteOffset": 186648
    },
    {
      "buffer": 0,
      "byteLength": 125940,
      "byteOffset": 312588
    },
    {
      "buffer": 0,
      "byteLength": 83960,
      "byteOffset": 438528
    },
    {
      "buffer": 0,
      "byteLength": 32808,
      "byteOffset": 522488
    },
    {
      "buffer": 0,
      "byteLength": 1536,
      "byteOffset": 555296
    },
    {
      "buffer": 0,
      "byteLength": 1536,
      "byteOffset": 556832
    },
    {
      "buffer": 0,
      "byteLength": 1024,
      "byteOffset": 558368
    },
    {
      "buffer": 0,
      "byteLength": 384,
      "byteOffset": 559392
    },
    {
      "buffer": 0,
      "byteLength": 6144,
      "byteOffset": 559776
    },
    {
      "buffer": 0,
      "byteLength": 6144,
      "byteOffset": 565920
    },
    {
      "buffer": 0,
      "byteLength": 4096,
      "byteOffset": 572064
    },
    {
      "buffer": 0,
      "byteLength": 1536,
      "byteOffset": 576160
    }
  ],
  "samplers": [
    {
      "magFilter": 9729,
      "minFilter": 9987
    }
  ],
  "buffers": [
    {
      "uri": "SpringManC.001_data.bin",
      "byteLength": 577696
    }
  ]
}